HIERARCHY
ROOT Hips
{
	OFFSET	0.000000	0.000000	0.000000
	CHANNELS	6	Xposition	Yposition	Zposition	Zrotation	Xrotation	Yrotation
	JOINT LeftHip
	{
		OFFSET	15.500000	-8.200000	0.000000
		CHANNELS	3	Zrotation	Xrotation	Yrotation
		JOINT LeftKnee
		{
			OFFSET	0.000000	-41.000000	0.000000
			CHANNELS	3	Zrotation	Xrotation	Yrotation
			JOINT LeftAnkle
			{
				OFFSET	0.000000	-41.500000	0.000000
				CHANNELS	3	Zrotation	Xrotation	Yrotation
				End Site
				{
					OFFSET	0.000000	0.000000	22.875000
				}
			}
		}
	}
	JOINT RightHip
	{
		OFFSET	-15.500000	-8.200000	0.000000
		CHANNELS	3	Zrotation	Xrotation	Yrotation
		JOINT RightKnee
		{
			OFFSET	0.000000	-41.000000	0.000000
			CHANNELS	3	Zrotation	Xrotation	Yrotation
			JOINT RightAnkle
			{
				OFFSET	0.000000	-41.500000	0.000000
				CHANNELS	3	Zrotation	Xrotation	Yrotation
				End Site
				{
					OFFSET	0.000000	0.000000	22.875000
				}
			}
		}
	}
	JOINT Chest
	{
		OFFSET	0.000000	16.666667	0.000000
		CHANNELS	3	Zrotation	Xrotation	Yrotation
		JOINT LeftCollar
		{
			OFFSET	4.625000	33.333333	1.541667
			CHANNELS	3	Zrotation	Xrotation	Yrotation
			JOINT LeftShoulder
			{
				OFFSET	13.875000	0.000000	0.000000
				CHANNELS	3	Zrotation	Xrotation	Yrotation
				JOINT LeftElbow
				{
					OFFSET	0.000000	-28.000000	0.000000
					CHANNELS	3	Zrotation	Xrotation	Yrotation
					JOINT LeftWrist
					{
						OFFSET	0.000000	-25.000000	0.000000
						CHANNELS	3	Zrotation	Xrotation	Yrotation
						End Site
						{
							OFFSET	0.000000	-7.500000	0.000000
						}
					}
				}
			}
		}
		JOINT RightCollar
		{
			OFFSET	-4.625000	33.333333	1.541667
			CHANNELS	3	Zrotation	Xrotation	Yrotation
			JOINT RightShoulder
			{
				OFFSET	-13.875000	0.000000	0.000000
				CHANNELS	3	Zrotation	Xrotation	Yrotation
				JOINT RightElbow
				{
					OFFSET	0.000000	-28.000000	0.000000
					CHANNELS	3	Zrotation	Xrotation	Yrotation
					JOINT RightWrist
					{
						OFFSET	0.000000	-25.000000	0.000000
						CHANNELS	3	Zrotation	Xrotation	Yrotation
						End Site
						{
							OFFSET	0.000000	-7.500000	0.000000
						}
					}
				}
			}
		}
		JOINT Neck
		{
			OFFSET	0.000000	33.333333	0.000000
			CHANNELS	3	Zrotation	Xrotation	Yrotation
			JOINT Head
			{
				OFFSET	0.000000	12.000000	0.000000
				CHANNELS	3	Zrotation	Xrotation	Yrotation
				End Site
				{
					OFFSET	0.000000	15.000000	0.000000
				}
			}
		}
	}
}
MOTION
Frames:	32
Frame Time:	0.012000
98.63	105.84	-86.18	-2.63	0.66	103.14	1.32	-7.89	-11.20	0.00	10.90	0.00	-8.64	45.64	6.42	-0.63	-7.86	0.87	0.00	9.79	0.00	-12.96	42.01	11.76	-0.12	-4.47	3.64	0.00	0.00	0.00	154.27	-32.28	148.88	-17.99	-2.43	-3.83	-5.40	-1.08	0.00	0.00	0.00	0.00	-157.92	-49.15	-158.00	3.04	-22.88	-24.92	3.99	-2.37	0.00	0.00	0.00	0.00	18.80	-51.88	17.47
99.05	105.94	-86.24	-2.69	0.77	103.73	1.27	-8.02	-11.01	0.00	11.55	0.00	-8.69	45.62	6.37	-0.64	-7.74	1.19	0.00	9.72	0.00	-12.90	42.02	11.74	-0.08	-4.47	3.64	0.00	0.00	0.00	154.30	-32.36	148.88	-17.90	-2.43	-3.76	-5.37	-1.11	0.00	0.00	0.00	0.00	-157.77	-49.11	-157.98	3.16	-22.95	-24.88	4.00	-2.36	0.00	0.00	0.00	0.00	18.58	-51.75	17.17
99.69	106.02	-85.99	-2.69	0.77	103.73	1.20	-8.19	-10.83	0.00	12.24	0.00	-8.72	45.57	6.33	-0.64	-7.64	1.51	0.00	9.67	0.00	-12.78	41.98	11.67	-0.05	-4.47	3.64	0.00	0.00	0.00	154.33	-32.43	148.88	-17.80	-2.40	-3.63	-5.36	-1.14	0.00	0.00	0.00	0.00	-157.66	-49.06	-157.95	3.26	-23.02	-24.87	4.00	-2.37	0.00	0.00	0.00	0.00	18.55	-51.74	17.17
100.05	106.10	-86.07	-2.69	0.77	103.73	1.12	-8.38	-10.65	0.00	12.96	0.00	-8.68	45.52	6.29	-0.64	-7.56	1.87	0.00	9.58	0.00	-12.64	41.89	11.54	-0.02	-4.48	3.64	0.00	0.00	0.00	154.31	-32.48	148.85	-17.74	-2.43	-3.57	-5.36	-1.15	0.00	0.00	0.00	0.00	-157.57	-49.03	-157.92	3.33	-23.10	-24.89	3.99	-2.38	0.00	0.00	0.00	0.00	18.52	-51.73	17.17
100.05	106.10	-86.07	-2.69	0.77	103.73	1.05	-8.48	-10.49	0.00	13.45	0.00	-8.62	45.60	6.31	-0.62	-7.55	2.22	0.00	9.59	0.00	-12.49	41.73	11.41	0.00	-4.49	3.63	0.00	0.00	0.00	154.31	-32.48	148.85	-17.74	-2.43	-3.57	-5.36	-1.15	0.00	0.00	0.00	0.00	-157.50	-49.00	-157.89	3.39	-23.13	-24.88	3.98	-2.39	0.00	0.00	0.00	0.00	18.50	-51.71	17.17
100.65	107.31	-86.24	-2.85	0.84	104.03	0.92	-8.89	-10.34	0.00	14.55	0.00	-8.41	45.40	6.28	-0.60	-7.45	2.57	0.00	9.36	0.00	-12.45	41.64	11.40	0.02	-4.52	3.63	0.00	0.00	0.00	154.26	-32.51	148.78	-17.68	-2.45	-3.48	-5.37	-1.16	0.00	0.00	0.00	0.00	-157.46	-48.97	-157.87	3.44	-23.13	-24.85	3.98	-2.39	0.00	0.00	0.00	0.00	18.72	-51.44	17.29
100.85	107.31	-85.84	-2.85	0.84	104.03	0.80	-9.20	-10.21	0.00	15.47	0.00	-8.17	45.34	6.27	-0.57	-7.40	2.89	0.00	9.18	0.00	-12.44	41.48	11.42	-0.01	-4.56	3.65	0.00	0.00	0.00	154.15	-32.48	148.75	-17.68	-2.49	-3.44	-5.41	-1.15	0.00	0.00	0.00	0.00	-157.52	-48.92	-157.88	3.43	-23.08	-24.88	4.00	-2.39	0.00	0.00	0.00	0.00	19.14	-51.17	17.56
100.76	107.29	-85.68	-3.26	0.96	104.49	0.68	-9.55	-10.09	0.00	16.48	0.00	-7.85	45.24	6.25	-0.53	-7.33	3.16	0.00	8.97	0.00	-12.49	41.37	11.45	0.00	-4.60	3.65	0.00	0.00	0.00	154.11	-32.44	148.71	-17.66	-2.52	-3.43	-5.44	-1.15	0.00	0.00	0.00	0.00	-157.51	-48.87	-157.88	3.45	-23.06	-24.85	4.02	-2.37	0.00	0.00	0.00	0.00	18.90	-51.38	17.40
101.37	107.30	-85.10	-3.26	0.96	104.49	0.54	-9.90	-9.98	0.00	17.52	0.00	-7.39	45.11	6.21	-0.45	-7.20	3.40	0.00	8.69	0.00	-12.55	41.28	11.51	0.02	-4.64	3.63	0.00	0.00	0.00	154.07	-32.39	148.65	-17.68	-2.58	-3.44	-5.46	-1.14	0.00	0.00	0.00	0.00	-157.49	-48.83	-157.93	3.46	-23.02	-24.80	4.05	-2.35	0.00	0.00	0.00	0.00	19.20	-51.17	17.66
101.35	107.29	-84.92	-3.26	0.96	104.49	0.42	-10.27	-9.86	0.00	18.54	0.00	-6.88	44.88	6.14	-0.41	-7.12	3.64	0.00	8.47	0.00	-12.63	41.19	11.59	0.05	-4.70	3.63	0.00	0.00	0.00	154.04	-32.33	148.56	-17.69	-2.65	-3.38	-5.49	-1.14	0.00	0.00	0.00	0.00	-157.48	-48.79	-157.98	3.46	-23.05	-24.69	4.05	-2.35	0.00	0.00	0.00	0.00	19.16	-51.11	17.64
101.27	107.28	-84.78	-3.69	1.01	104.93	0.28	-10.65	-9.72	0.00	19.61	0.00	-6.36	44.61	6.08	-0.37	-7.05	3.87	0.00	8.23	0.00	-12.71	41.11	11.69	0.10	-4.76	3.62	0.00	0.00	0.00	154.06	-32.24	148.48	-17.69	-2.65	-3.36	-5.51	-1.13	0.00	0.00	0.00	0.00	-157.41	-48.71	-158.03	3.54	-23.01	-24.60	4.06	-2.34	0.00	0.00	0.00	0.00	19.33	-50.94	17.88
101.91	107.28	-84.34	-3.69	1.01	104.93	0.15	-11.08	-9.58	0.00	20.72	0.00	-5.98	44.23	6.09	-0.33	-6.96	4.10	0.00	7.95	0.00	-12.86	41.08	11.80	0.16	-4.83	3.63	0.00	0.00	0.00	154.12	-32.14	148.40	-17.66	-2.65	-3.33	-5.51	-1.13	0.00	0.00	0.00	0.00	-157.34	-48.71	-158.13	3.62	-23.01	-24.51	4.04	-2.36	0.00	0.00	0.00	0.00	19.24	-50.89	17.84
101.82	107.28	-84.23	-3.69	1.01	104.93	0.04	-11.50	-9.43	0.00	21.74	0.00	-5.66	43.89	6.17	-0.30	-6.89	4.30	0.00	7.74	0.00	-13.01	41.03	11.90	0.22	-4.89	3.65	0.00	0.00	0.00	154.21	-32.02	148.34	-17.63	-2.58	-3.33	-5.50	-1.12	0.00	0.00	0.00	0.00	-157.28	-48.67	-158.21	3.69	-23.01	-24.43	4.03	-2.36	0.00	0.00	0.00	0.00	19.14	-50.82	17.79
101.72	107.27	-84.14	-4.01	1.02	105.15	-0.05	-11.91	-9.29	0.00	22.71	0.00	-5.37	43.55	6.26	-0.26	-6.84	4.46	0.00	7.56	0.00	-13.15	40.98	11.99	0.29	-4.95	3.67	0.00	0.00	0.00	154.29	-31.95	148.27	-17.59	-2.59	-3.29	-5.49	-1.13	0.00	0.00	0.00	0.00	-157.21	-48.65	-158.33	3.77	-23.04	-24.36	4.02	-2.38	0.00	0.00	0.00	0.00	19.33	-50.66	18.02
102.22	107.26	-83.92	-4.01	1.02	105.15	-0.12	-12.33	-9.16	0.00	23.59	0.00	-5.06	43.19	6.31	-0.23	-6.81	4.60	0.00	7.41	0.00	-13.27	40.93	12.09	0.37	-5.02	3.70	0.00	0.00	0.00	154.38	-31.86	148.23	-17.56	-2.58	-3.27	-5.50	-1.13	0.00	0.00	0.00	0.00	-157.20	-48.66	-158.49	3.87	-23.05	-24.30	4.02	-2.40	0.00	0.00	0.00	0.00	19.19	-50.59	17.94
102.12	107.25	-83.84	-4.01	1.02	105.15	-0.18	-12.77	-9.00	0.00	24.40	0.00	-4.74	42.84	6.27	-0.22	-6.80	4.73	0.00	7.33	0.00	-13.40	40.93	12.20	0.48	-5.08	3.71	0.00	0.00	0.00	154.55	-31.78	148.20	-17.50	-2.54	-3.24	-5.47	-1.09	0.00	0.00	0.00	0.00	-157.14	-48.64	-158.68	4.02	-23.00	-24.26	4.06	-2.42	0.00	0.00	0.00	0.00	19.06	-50.53	17.91
102.07	107.23	-83.80	-4.43	1.09	105.39	-0.22	-13.20	-8.84	0.00	25.03	0.00	-4.42	42.50	6.16	-0.20	-6.82	4.80	0.00	7.37	0.00	-13.53	40.89	12.29	0.57	-5.14	3.75	0.00	0.00	0.00	154.66	-31.71	148.16	-17.45	-2.51	-3.24	-5.49	-1.08	0.00	0.00	0.00	0.00	-157.13	-48.68	-158.88	4.13	-23.01	-24.22	4.10	-2.42	0.00	0.00	0.00	0.00	19.12	-50.42	18.10
102.81	107.23	-83.55	-4.43	1.09	105.39	-0.23	-13.60	-8.67	0.00	25.49	0.00	-4.14	42.33	6.06	-0.19	-6.91	4.92	0.00	7.53	0.00	-13.59	40.82	12.31	0.65	-5.20	3.80	0.00	0.00	0.00	154.75	-31.65	148.11	-17.41	-2.49	-3.23	-5.49	-1.08	0.00	0.00	0.00	0.00	-157.14	-48.78	-159.09	4.19	-23.08	-24.20	4.15	-2.41	0.00	0.00	0.00	0.00	19.04	-50.30	18.05
102.80	107.23	-83.54	-4.43	1.09	105.39	-0.23	-14.01	-8.49	0.00	25.80	0.00	-3.90	42.17	5.98	-0.19	-7.04	5.04	0.00	7.73	0.00	-13.62	40.72	12.31	0.74	-5.24	3.85	0.00	0.00	0.00	154.89	-31.61	148.08	-17.33	-2.47	-3.21	-5.53	-1.13	0.00	0.00	0.00	0.00	-157.10	-48.86	-159.25	4.36	-23.07	-24.07	4.19	-2.40	0.00	0.00	0.00	0.00	19.05	-50.11	18.08
102.80	107.23	-83.54	-4.43	1.09	105.39	-0.23	-14.51	-8.34	0.00	26.20	0.00	-3.74	41.90	5.99	-0.20	-7.08	5.16	0.00	7.82	0.00	-13.63	40.72	12.31	0.80	-5.25	3.89	0.00	0.00	0.00	154.89	-31.61	148.08	-17.33	-2.47	-3.21	-5.53	-1.13	0.00	0.00	0.00	0.00	-157.06	-48.99	-159.38	4.48	-23.10	-23.94	4.23	-2.37	0.00	0.00	0.00	0.00	18.93	-50.11	18.01
102.77	107.23	-83.53	-4.93	1.18	105.53	-0.19	-14.72	-8.18	0.00	25.89	0.00	-3.68	41.86	6.04	-0.19	-7.35	5.24	0.00	8.36	0.00	-13.59	40.53	12.25	0.89	-5.26	3.92	0.00	0.00	0.00	155.14	-31.65	148.03	-17.11	-2.52	-3.23	-5.52	-1.11	0.00	0.00	0.00	0.00	-156.94	-49.10	-159.44	4.65	-23.10	-23.79	4.29	-2.33	0.00	0.00	0.00	0.00	18.84	-49.90	18.06
103.68	107.23	-83.32	-4.93	1.18	105.53	-0.15	-15.00	-8.04	0.00	25.63	0.00	-3.71	41.84	6.17	-0.20	-7.54	5.31	0.00	8.72	0.00	-13.54	40.43	12.20	0.97	-5.25	3.96	0.00	0.00	0.00	155.31	-31.70	148.03	-16.93	-2.52	-3.22	-5.49	-1.10	0.00	0.00	0.00	0.00	-156.83	-49.24	-159.48	4.78	-23.16	-23.63	4.34	-2.30	0.00	0.00	0.00	0.00	18.73	-49.91	18.02
103.68	107.25	-83.33	-5.28	1.31	105.57	-0.11	-15.19	-7.96	0.00	25.15	0.00	-3.82	41.96	6.35	-0.19	-7.75	5.37	0.00	9.10	0.00	-13.47	40.32	12.15	1.04	-5.23	3.98	0.00	0.00	0.00	155.49	-31.78	148.05	-16.73	-2.54	-3.16	-5.47	-1.08	0.00	0.00	0.00	0.00	-156.71	-49.39	-159.45	4.95	-23.14	-23.45	4.41	-2.26	0.00	0.00	0.00	0.00	18.42	-49.94	17.94
104.32	107.28	-83.06	-5.28	1.31	105.57	-0.07	-15.32	-7.91	0.00	24.50	0.00	-3.97	42.19	6.58	-0.19	-7.95	5.40	0.00	9.47	0.00	-13.38	40.18	12.09	1.07	-5.17	4.02	0.00	0.00	0.00	155.62	-31.91	148.09	-16.52	-2.57	-3.11	-5.47	-1.06	0.00	0.00	0.00	0.00	-156.60	-49.55	-159.41	5.11	-23.12	-23.26	4.45	-2.23	0.00	0.00	0.00	0.00	18.29	-49.73	17.75
104.31	107.30	-83.05	-5.28	1.31	105.57	-0.04	-15.35	-7.91	0.00	23.64	0.00	-4.16	42.47	6.83	-0.19	-8.16	5.41	0.00	9.83	0.00	-13.30	40.00	12.02	1.13	-5.13	4.03	0.00	0.00	0.00	155.83	-32.02	148.11	-16.29	-2.57	-3.03	-5.48	-1.05	0.00	0.00	0.00	0.00	-156.40	-49.65	-159.32	5.40	-23.00	-23.01	4.51	-2.20	0.00	0.00	0.00	0.00	18.23	-49.78	17.75
104.24	107.33	-83.03	-5.45	1.43	105.59	4.04	-15.35	-10.97	-9.57	20.99	5.12	-0.06	43.34	1.87	-3.81	-7.19	7.79	7.28	6.77	-3.03	-16.58	40.43	16.79	1.18	-5.08	4.05	0.00	0.00	0.00	156.03	-32.12	148.14	-16.07	-2.52	-2.92	-5.48	-1.04	0.00	0.00	0.00	0.00	-156.29	-49.78	-159.25	5.52	-23.01	-22.92	4.56	-2.18	0.00	0.00	0.00	0.00	17.92	-49.63	17.53
104.47	107.36	-82.77	-5.45	1.43	105.59	3.97	-15.54	-11.07	-9.40	20.42	5.10	-0.34	43.25	2.14	-3.81	-7.25	7.77	7.25	6.77	-3.03	-16.52	40.46	16.77	1.24	-5.06	4.06	0.00	0.00	0.00	156.19	-32.21	148.15	-15.90	-2.54	-2.88	-5.47	-1.04	0.00	0.00	0.00	0.00	-156.14	-49.84	-159.17	5.67	-23.00	-22.82	4.60	-2.17	0.00	0.00	0.00	0.00	17.87	-49.65	17.54
104.37	107.37	-82.75	-5.45	1.43	105.59	3.90	-15.71	-11.23	-9.21	19.76	5.08	-0.61	43.09	2.34	-3.81	-7.33	7.76	7.26	6.82	-3.03	-16.42	40.61	16.76	1.27	-5.01	4.06	0.00	0.00	0.00	156.29	-32.33	148.16	-15.77	-2.56	-2.88	-5.46	-1.04	0.00	0.00	0.00	0.00	-156.03	-49.91	-159.07	5.80	-22.97	-22.74	4.61	-2.17	0.00	0.00	0.00	0.00	17.84	-49.70	17.56
104.35	107.39	-82.69	-5.80	1.63	105.57	3.80	-15.86	-11.39	-9.00	19.03	5.06	-0.83	42.95	2.45	-3.80	-7.40	7.74	7.23	6.80	-3.03	-16.35	40.63	16.74	1.28	-4.97	4.08	0.00	0.00	0.00	156.37	-32.43	148.16	-15.67	-2.58	-2.89	-5.46	-1.04	0.00	0.00	0.00	0.00	-155.96	-49.98	-159.01	5.88	-22.99	-22.70	4.61	-2.18	0.00	0.00	0.00	0.00	17.28	-49.45	17.28
104.86	107.42	-82.27	-5.80	1.63	105.57	3.69	-15.99	-11.57	-8.75	18.26	5.04	-0.98	42.85	2.49	-3.77	-7.48	7.70	7.18	6.80	-3.03	-16.28	40.70	16.69	1.29	-4.94	4.10	0.00	0.00	0.00	156.42	-32.53	148.18	-15.58	-2.62	-2.91	-5.48	-1.03	0.00	0.00	0.00	0.00	-155.94	-50.04	-158.97	5.93	-23.02	-22.68	4.59	-2.20	0.00	0.00	0.00	0.00	17.26	-49.49	17.27
104.74	107.45	-82.22	-5.80	1.63	105.57	3.57	-16.11	-11.76	-8.50	17.48	5.02	-1.02	42.80	2.44	-3.74	-7.55	7.65	7.14	6.82	-3.03	-16.21	40.74	16.63	1.31	-4.91	4.11	0.00	0.00	0.00	156.49	-32.64	148.20	-15.49	-2.67	-2.92	-5.49	-1.01	0.00	0.00	0.00	0.00	-155.97	-50.15	-159.00	5.84	-23.17	-22.80	4.58	-2.22	0.00	0.00	0.00	0.00	17.22	-49.51	17.25
104.64	107.47	-82.15	-6.13	1.80	105.36	3.45	-16.24	-11.93	-8.23	16.74	5.00	-1.01	42.79	2.38	-3.70	-7.63	7.60	7.10	6.83	-3.03	-16.18	40.82	16.59	1.37	-4.92	4.15	0.00	0.00	0.00	156.61	-32.70	148.19	-15.37	-2.69	-2.90	-5.48	-0.98	0.00	0.00	0.00	0.00	-155.94	-50.17	-159.05	5.93	-23.22	-22.82	4.57	-2.24	0.00	0.00	0.00	0.00	16.71	-49.09	17.08
